<svg xmlns="http://www.w3.org/2000/svg" xmlns:xlink="http://www.w3.org/1999/xlink" height="600" preserveAspectRatio="xMidYMid meet" viewBox="0 0 512 512" width="800">
<g fill="#f7931e">
<svg class="icon" preserveAspectRatio="xMidYMid meet" version="1.0" viewBox="0 0 512 512">
<g>
<svg height="512" preserveAspectRatio="xMidYMid meet" width="512">
<svg version="1.1" viewBox="0 0 1648 1649">
<path d="M0 0 C2.7 0 5.5 0 8.2 0 C33.3 0 58.2 0.2 83.2 3.1 C85.6 3.3 88 3.6 90.4 3.9 C164.9 12 238.5 29.6 416.4 110.3 C417.3 110.8 418.2 111.3 419.1 111.9 C431.9 119.4 444.2 127.4 456.5 135.6 C457.2 136 457.9 136.5 458.6 137 C472.2 146 485.5 155.4 498.4 165.3 C499.5 166.1 500.5 166.9 501.5 167.6 C517.9 180.1 533.8 193.2 549 207.1 C551.1 209 553.2 210.8 555.3 212.7 C567 222.9 578 233.8 589 244.8 C589.6 245.3 590.1 245.9 590.7 246.5 C596.3 252 601.8 257.6 606.9 263.6 C609.5 266.5 612.2 269.3 614.8 272.1 C619.5 277.1 623.9 282.2 628.2 287.5 C630.3 290.1 632.5 292.7 634.7 295.2 C641.5 303 647.7 311.1 653.9 319.3 C655.3 321.1 656.7 322.9 658.1 324.7 C707.5 388 746.2 460.7 794.9 601.3 C795.3 602.7 795.7 604.1 796 605.5 C808.5 652.2 817.4 699.7 821.2 747.9 C821.4 749.7 821.5 751.4 821.7 753.1 C823.5 774.4 823.8 795.6 823.8 816.9 C823.8 819.6 823.8 822.3 823.8 825.1 C823.7 850.1 823.5 875.1 820.7 900.1 C820.4 902.5 820.2 904.9 819.9 907.3 C811.8 981.8 794.2 1055.4 713.4 1233.3 C712.9 1234.2 712.4 1235.1 711.9 1236 C704.4 1248.7 696.4 1261.1 688.2 1273.4 C687.7 1274.1 687.3 1274.8 686.8 1275.5 C677.7 1289.1 668.3 1302.3 658.4 1315.3 C657.7 1316.3 656.9 1317.3 656.1 1318.4 C643.6 1334.8 630.5 1350.6 616.7 1365.8 C614.8 1367.9 612.9 1370.1 611.1 1372.2 C600.9 1383.9 590 1394.9 579 1405.9 C578.4 1406.4 577.9 1407 577.3 1407.6 C571.8 1413.2 566.2 1418.7 560.2 1423.8 C557.3 1426.3 554.5 1429 551.6 1431.7 C546.7 1436.3 541.6 1440.8 536.3 1445 C533.6 1447.2 531.1 1449.3 528.6 1451.6 C520.8 1458.3 512.7 1464.6 504.4 1470.8 C502.6 1472.2 500.8 1473.6 499.1 1474.9 C435.7 1524.4 363.1 1563.1 222.4 1611.8 C221.1 1612.2 219.7 1612.5 218.3 1612.9 C170.7 1625.6 122.5 1634.1 73.4 1638.3 C72.3 1638.4 71.2 1638.5 70.1 1638.6 C-13.2 1645.9 -97.6 1639.1 -409.6 1530.3 C-410.4 1529.8 -411.3 1529.3 -412.2 1528.8 C-425 1521.3 -437.3 1513.3 -449.6 1505.1 C-450.3 1504.6 -451 1504.1 -451.7 1503.7 C-465.3 1494.6 -478.6 1485.2 -491.6 1475.3 C-492.6 1474.5 -493.6 1473.8 -494.6 1473 C-511 1460.5 -526.9 1447.4 -542.1 1433.5 C-544.2 1431.7 -546.3 1429.8 -548.4 1428 C-560.1 1417.7 -571.1 1406.8 -582.1 1395.9 C-582.7 1395.3 -583.2 1394.8 -583.8 1394.2 C-589.4 1388.6 -594.9 1383.1 -600 1377.1 C-602.6 1374.1 -605.3 1371.3 -607.9 1368.5 C-612.6 1363.5 -617 1358.5 -621.3 1353.1 C-623.4 1350.5 -625.6 1348 -627.8 1345.4 C-634.6 1337.6 -640.8 1329.5 -647.1 1321.3 C-648.4 1319.5 -649.8 1317.7 -651.2 1315.9 C-700.6 1252.6 -739.3 1180 -814.4 892.7 C-814.5 891 -814.7 889.2 -814.8 887.5 C-816.6 866.2 -816.9 845.1 -816.9 823.8 C-816.9 821 -816.9 818.3 -816.9 815.6 C-816.8 790.5 -816.7 765.5 -813.8 740.6 C-813.5 738.2 -813.3 735.8 -813 733.4 C-804.9 658.8 -787.3 585.3 -706.6 407.3 C-705.8 406 -705.8 406 -705 404.7 C-697.5 391.9 -689.5 379.5 -681.3 367.3 C-680.6 366.2 -680.6 366.2 -679.9 365.2 C-670.9 351.6 -661.4 338.3 -651.6 325.3 C-650.8 324.3 -650 323.3 -649.2 322.2 C-636.8 305.9 -623.6 290 -609.8 274.8 C-607.9 272.7 -606 270.6 -604.2 268.5 C-594 256.8 -583.1 245.7 -572.1 234.8 C-571.6 234.2 -571 233.6 -570.4 233 C-564.9 227.5 -559.3 221.9 -553.3 216.8 C-550.4 214.3 -547.6 211.6 -544.7 208.9 C-539.8 204.3 -534.7 199.9 -529.4 195.6 C-526.8 193.5 -524.2 191.3 -521.7 189.1 C-513.9 182.3 -505.8 176 -497.5 169.8 C-495.7 168.5 -494 167.1 -492.2 165.7 C-428.8 116.3 -356.2 77.5 -68.9 2.5 C-67.2 2.4 -65.5 2.2 -63.7 2.1 C-42.5 0.2 -21.3 -0 0 0 Z M-99.7 244.9 C-113.5 263.2 -117.5 285 -118.8 307.4 C-119.3 315.8 -120.7 322.9 -126.6 329.3 C-134.3 334.4 -143.2 337.1 -152 339.8 C-176.1 347.4 -198.9 357.9 -221.6 369 C-228.1 372.1 -234.5 375.2 -240.9 378.2 C-242.2 378.8 -242.2 378.8 -243.6 379.5 C-248.4 381.7 -252.2 383.2 -257.6 382.3 C-259.9 380.8 -261.8 379.5 -263.9 377.6 C-265.1 376.6 -266.3 375.6 -267.6 374.6 C-268.5 373.8 -268.5 373.8 -269.5 373 C-292.9 354 -319.5 337.8 -350.6 340.3 C-365.8 342.8 -378.2 351.3 -389.6 361.3 C-390.4 362 -391.2 362.8 -392 363.5 C-393.6 364.9 -395.3 366.4 -396.8 367.8 C-398.6 369.4 -400.4 371 -402.1 372.6 C-410.1 379.8 -417.7 387.3 -425.3 395 C-427.4 397 -429.4 399.1 -431.5 401.1 C-432.8 402.5 -434.2 403.8 -435.5 405.1 C-436.1 405.7 -436.7 406.3 -437.3 407 C-441.6 411.3 -445.6 415.7 -449.6 420.3 C-450.1 421 -450.7 421.6 -451.3 422.3 C-465.7 439.2 -479.2 458 -477.6 481.3 C-475.3 501.2 -463.8 518.1 -452.2 533.9 C-435.4 556.6 -435.4 556.6 -437.6 571.3 C-439.1 577 -441.9 582.1 -444.7 587.3 C-455.5 607.2 -463.5 628.2 -471.3 649.4 C-479 670.3 -479 670.3 -481.9 677.6 C-482.2 678.3 -482.5 679 -482.8 679.7 C-486 687.5 -492.7 694.1 -500.6 697.3 C-504.3 698.1 -508 698.2 -511.9 698.4 C-537.1 700 -561.4 706.5 -579.6 725.3 C-590.1 737.4 -595.7 750.9 -599.6 766.3 C-599.7 767 -599.9 767.6 -600.1 768.2 C-600.6 770.4 -600.7 772.3 -600.7 774.5 C-600.7 775.3 -600.7 776.1 -600.7 777 C-600.7 778.3 -600.7 778.3 -600.7 779.7 C-600.7 780.6 -600.7 781.6 -600.8 782.6 C-600.8 785.7 -600.8 788.9 -600.8 792 C-600.8 793.1 -600.8 794.2 -600.8 795.3 C-600.8 801 -600.8 806.7 -600.9 812.5 C-600.9 818.3 -600.9 824.2 -600.9 830.1 C-601 834.6 -601 839.2 -601 843.7 C-601 845.9 -601 848.1 -601 850.2 C-601.2 868.3 -599.1 883.1 -590.6 899.3 C-590.1 900.2 -589.7 901 -589.2 901.9 C-579.4 919.7 -561.9 931.9 -542.7 937.5 C-532.4 940.3 -522 941.8 -511.4 942.8 C-510.6 942.9 -509.7 942.9 -508.7 943 C-507 943.2 -505.2 943.3 -503.5 943.4 C-498.5 943.9 -495 944.8 -490.6 947.3 C-489.6 947.6 -488.6 948 -487.6 948.3 C-486.5 950.1 -486.5 950.1 -485.6 952.3 C-485 953.4 -485 953.4 -484.4 954.6 C-481.1 961.6 -478.7 968.8 -476.3 976.1 C-472.3 989 -467.7 1001.5 -462.6 1014 C-462.3 1014.7 -462 1015.5 -461.7 1016.3 C-457.7 1026.1 -453.4 1035.9 -449 1045.6 C-448.1 1047.7 -447.1 1049.9 -446.2 1052 C-444.3 1056.1 -442.5 1060.1 -440.6 1064.2 C-439.7 1066.1 -438.9 1068 -438 1069.9 C-437.6 1070.7 -437.2 1071.6 -436.8 1072.5 C-434.2 1078.2 -434.2 1078.2 -435.1 1081.3 C-436.2 1083.2 -436.2 1083.2 -438.6 1086.3 C-439 1087 -439.4 1087.7 -439.9 1088.4 C-440.3 1088.9 -440.7 1089.5 -441.1 1090.1 C-441.6 1090.7 -442 1091.3 -442.5 1092 C-443 1092.7 -443.5 1093.4 -444 1094.1 C-445.1 1095.6 -446.1 1097.1 -447.2 1098.6 C-447.7 1099.4 -448.3 1100.1 -448.9 1100.9 C-465.3 1124.1 -479.8 1145.9 -476.2 1175.5 C-473.3 1189.1 -465.8 1201.2 -456.6 1211.3 C-455.6 1212.3 -454.7 1213.4 -453.8 1214.4 C-449.2 1219.5 -444.4 1224.5 -439.5 1229.3 C-437.7 1231.2 -436.1 1233 -434.4 1235 C-430.2 1239.8 -425.7 1244.3 -421.1 1248.9 C-420.3 1249.7 -419.5 1250.5 -418.7 1251.3 C-414.4 1255.6 -410 1259.8 -405.3 1263.8 C-402.8 1265.9 -400.5 1268.3 -398.2 1270.7 C-393 1276 -387.5 1280.8 -381.6 1285.3 C-380.7 1285.9 -379.9 1286.6 -379.1 1287.2 C-362.9 1299.2 -345.2 1303.6 -325.4 1300.9 C-311.8 1297.6 -300.7 1289.8 -290.6 1280.5 C-278.7 1269.6 -265 1262.6 -248.7 1262.8 C-233.4 1263.5 -220.7 1271 -207.9 1279 C-193 1288.2 -177.1 1293.8 -160.5 1299.1 C-157.5 1300 -154.5 1301 -151.5 1302 C-149.6 1302.6 -147.7 1303.2 -145.9 1303.8 C-134.5 1307.5 -126.9 1312 -120.6 1322.6 C-119 1326.7 -118.4 1330.8 -118.2 1335.2 C-116.3 1360.9 -111.1 1383.4 -92.6 1402.3 C-91.9 1403 -91.2 1403.7 -90.6 1404.4 C-86 1408.8 -81 1412 -75.5 1415 C-74.9 1415.4 -74.2 1415.7 -73.5 1416.1 C-71.3 1417.3 -68.9 1418.3 -66.6 1419.3 C-65 1420 -65 1420 -63.4 1420.7 C-51.4 1425.1 -39.4 1425.3 -26.7 1425.3 C-23 1425.3 -19.4 1425.4 -15.7 1425.5 C-3.9 1426.1 -3.9 1426.1 6.7 1422 C8.7 1419.2 10.1 1416.5 11.4 1413.3 C12.9 1411.3 12.9 1411.3 14.4 1409.5 C14.8 1409 15.3 1408.4 15.7 1407.9 C16.3 1407.1 16.3 1407.1 17 1406.3 C39.3 1378 37.6 1349.7 37.6 1315 C37.6 1312.7 37.6 1310.5 37.6 1308.2 C37.6 1303.6 37.6 1298.9 37.6 1294.2 C37.6 1289.5 37.6 1284.8 37.6 1280.1 C37.6 1264.8 37.6 1249.6 37.4 1234.3 C37.4 1233.5 37.4 1232.6 37.4 1231.7 C37.4 1226.8 37.3 1221.8 37.2 1216.9 C37.2 1215.8 37.2 1214.7 37.1 1213.5 C36.7 1198.6 31.8 1185.9 21.6 1175 C7.3 1161.6 -11.3 1159.4 -30.1 1158 C-94.8 1152.7 -158.7 1125.2 -209.6 1085.3 C-210.5 1084.5 -211.5 1083.8 -212.5 1083 C-229.2 1069.6 -245.5 1054.3 -258.6 1037.3 C-259.6 1036 -260.6 1034.7 -261.6 1033.4 C-268.7 1024.3 -275.4 1015.1 -281.6 1005.3 C-282.1 1004.5 -282.5 1003.7 -283.1 1002.9 C-326.3 933.3 -345.6 842.6 -331.6 761.3 C-331.4 760.2 -331.2 759 -331 757.8 C-326.3 731.5 -318.4 706.7 -307.6 682.3 C-307.2 681.5 -306.8 680.7 -306.5 679.9 C-302.1 670 -297.1 660.6 -291.6 651.3 C-291.1 650.6 -290.7 649.9 -290.3 649.2 C-272.7 620 -250.3 592.8 -224.6 570.3 C-223.6 569.5 -222.6 568.6 -221.6 567.7 C-206.4 554.4 -189.9 542.7 -172.6 532.3 C-171.3 531.6 -171.3 531.6 -170.1 530.8 C-124.1 503.4 -73 487.4 -19.8 481.8 C-3.1 480.1 12.5 475.5 24.3 463 C34.2 450.5 36.9 435.7 36.9 420.1 C36.9 418.2 36.9 418.2 36.9 416.3 C36.9 412.9 36.9 409.5 37 406.1 C37 402.5 37 398.9 37 395.3 C37.1 388.5 37.1 381.7 37.1 374.8 C37.1 367.2 37.2 359.5 37.2 351.9 C37.3 336 37.4 320.1 37.4 304.2 C37.4 300.8 37.5 297.5 37.5 294.1 C37.5 292 37.5 289.9 37.5 287.9 C37.5 285.3 37.5 282.7 37.6 280.1 C37.6 271.5 37 263.6 34.4 255.3 C34 254 34 254 33.6 252.6 C31.3 246.1 27.6 240.7 23.4 235.3 C22.9 234.6 22.4 234 21.9 233.3 C16.4 226.4 8.3 220.3 0.4 216.3 C-1.1 216.2 -2.6 216.1 -4.2 216.1 C-5.2 216.1 -6.1 216.1 -7.1 216.1 C-11.6 216 -16.1 216 -20.6 216 C-22.9 216 -25.2 215.9 -27.6 215.9 C-56.1 215.4 -80.6 222.3 -99.7 244.9 Z M123.1 283 C109.7 301.2 105.3 319.6 107.8 341.8 C111.9 360.5 124.2 375.6 137.6 388.5 C138.3 389.2 139.1 389.9 139.8 390.6 C140.8 391.5 140.8 391.5 141.8 392.5 C144.7 395.7 145.7 398.5 145.9 402.8 C145.9 403.7 145.9 404.6 146 405.5 C146 406.5 146 407.5 146.1 408.5 C146.1 409.6 146.1 410.6 146.2 411.7 C146.6 424.7 146.6 437.8 146.6 450.9 C146.6 454.4 146.6 458 146.6 461.6 C146.6 486.6 146.6 486.6 146.1 498.6 C146 499.4 146 500.2 146 500.9 C145.8 504.5 145.5 506.2 143.4 509.3 C140.6 510.3 138.8 510.4 135.9 510.5 C134.9 510.5 134 510.5 133 510.5 C131.5 510.5 131.5 510.5 129.9 510.5 C128.8 510.5 127.7 510.5 126.6 510.5 C123 510.5 119.4 510.5 115.8 510.5 C113.3 510.5 110.8 510.5 108.3 510.5 C103.1 510.5 97.9 510.5 92.6 510.5 C87.3 510.5 81.9 510.5 76.5 510.5 C70 510.5 63.5 510.5 57 510.5 C54.6 510.5 52.1 510.6 49.6 510.6 C46.2 510.6 42.7 510.6 39.2 510.6 C38.2 510.6 37.2 510.6 36.1 510.6 C34.7 510.6 34.7 510.6 33.3 510.6 C32.5 510.6 31.6 510.6 30.8 510.6 C26.3 510.1 23.8 508.6 20.5 505.6 C7.4 494 -9.7 491.5 -26.6 492.3 C-31.7 492.8 -36.9 493.5 -42 494.3 C-43 494.5 -43 494.5 -44.1 494.6 C-123.2 507 -202.3 547.8 -251.6 612.3 C-252.3 613.2 -253 614.1 -253.7 615 C-266.7 631.2 -278.1 648.9 -287.6 667.3 C-288.3 668.7 -288.3 668.7 -289 670.1 C-305.5 702.3 -316 736.6 -321.6 772.3 C-321.7 773.3 -321.9 774.4 -322.1 775.4 C-326.9 806.5 -326.7 840.2 -321.6 871.3 C-321.4 872.4 -321.2 873.4 -321 874.5 C-311.8 930.1 -288.7 983.1 -252.9 1026.7 C-252 1027.8 -251.1 1028.8 -250.3 1029.9 C-243.4 1038.5 -235.8 1046.3 -228 1054.1 C-227.3 1054.9 -227.3 1054.9 -226.5 1055.6 C-219.9 1062.3 -213 1068.5 -205.6 1074.3 C-204.4 1075.2 -203.3 1076.2 -202.2 1077.1 C-157 1113.4 -78.1 1155.6 -17.6 1149.3 C-3 1147.4 12.9 1143.3 23.4 1132.2 C28 1129.4 32.1 1129.8 37.4 1129.8 C38.5 1129.8 39.6 1129.8 40.8 1129.8 C44.4 1129.8 48.1 1129.8 51.7 1129.9 C54.3 1129.9 56.8 1129.9 59.3 1129.9 C64.7 1129.9 70 1129.9 75.3 1129.9 C81.5 1129.9 87.6 1129.9 93.8 1129.9 C99.7 1129.9 105.6 1130 111.5 1130 C114 1130 116.5 1130 119.1 1130 C122.6 1130 126.1 1130 129.6 1130 C131.2 1130 131.2 1130 132.8 1130 C133.7 1130 134.7 1130 135.7 1130.1 C136.9 1130.1 136.9 1130.1 138.2 1130.1 C140.7 1130.3 142.3 1131 144.4 1132.3 C145.9 1135.3 145.6 1138.2 145.6 1141.4 C145.7 1142.2 145.7 1142.9 145.7 1143.7 C145.7 1146.1 145.7 1148.6 145.8 1151 C145.8 1152.7 145.8 1154.5 145.8 1156.2 C145.9 1159.8 145.9 1163.4 145.9 1167 C146 1171.6 146 1176.1 146.1 1180.7 C146.2 1189.3 146.3 1198 146.4 1206.6 C146.4 1211.2 146.5 1215.8 146.5 1220.5 C146.6 1222.4 146.6 1224.4 146.6 1226.3 C146.6 1227.1 146.6 1227.9 146.6 1228.8 C146.7 1238.3 144.8 1246.1 138.4 1253.3 C135.7 1255.7 133 1258 130.1 1260.2 C117.1 1270.5 109.2 1285.2 106.7 1301.6 C104.7 1321.3 110.2 1341.4 122.7 1356.8 C135.2 1371.8 151.9 1382 171.4 1384.3 C193.9 1386 213.6 1380 230.8 1365.3 C245.3 1351.5 253.3 1332.2 253.9 1312.3 C254 1293.7 249 1279.6 236.2 1266 C231.5 1260.8 231.5 1260.8 225.4 1258.3 C225.2 1257.7 224.9 1257.1 224.6 1256.5 C223.5 1254.5 222.3 1252.7 221 1250.8 C214.6 1240.2 215 1228.8 215 1216.8 C215 1213.7 215 1210.6 215 1207.4 C215 1200.8 215 1194.1 214.9 1187.4 C214.9 1179.7 214.9 1172 214.9 1164.3 C214.9 1161.3 214.9 1158.3 214.9 1155.2 C214.8 1129.7 212.2 1103 193.9 1083.7 C170.9 1061.4 139.8 1061.1 109.7 1061.2 C107.7 1061.2 105.6 1061.2 103.5 1061.2 C98.1 1061.2 92.8 1061.2 87.4 1061.2 C81.9 1061.3 76.3 1061.3 70.8 1061.3 C60 1061.3 49.2 1061.3 38.4 1061.3 C38.4 1058 38.4 1054.7 38.4 1051.3 C39.5 1051.3 40.5 1051.3 41.6 1051.3 C66.8 1051.4 92 1051.4 117.2 1051.5 C129.4 1051.5 141.6 1051.5 153.8 1051.5 C164.4 1051.6 175.1 1051.6 185.7 1051.6 C191.3 1051.6 197 1051.6 202.6 1051.6 C207.9 1051.7 213.2 1051.7 218.5 1051.7 C220.4 1051.7 222.4 1051.7 224.3 1051.7 C244.8 1051.8 244.8 1051.8 262.4 1042.3 C269.6 1035 271.6 1026.9 271.9 1016.9 C271.7 1007.6 269.3 999.4 263.4 992.1 C251.2 980.9 234.2 982 218.8 982.2 C216.9 982.2 214.9 982.2 212.9 982.2 C207.6 982.2 202.3 982.3 196.9 982.3 C191.4 982.4 185.8 982.4 180.2 982.4 C169.7 982.5 159.1 982.5 148.6 982.6 C136.6 982.7 124.6 982.8 112.5 982.8 C87.8 983 63.1 983.1 38.4 983.3 C38.4 973.4 38.4 963.5 38.4 953.3 C111.1 953.2 183.7 953.2 256.3 953.7 C262.3 953.7 268.2 953.7 274.1 953.7 C281.4 953.8 288.7 953.8 295.9 953.9 C299.6 953.9 303.3 953.9 307.1 953.9 C311.1 953.9 315.1 954 319.2 954 C320.3 954 321.5 954 322.7 954 C323.8 954 324.9 954 326 954 C327 954 327.9 954.1 328.8 954.1 C333.5 954.5 335.9 955.8 339.2 959.2 C344.7 967.6 342.6 981.2 342.6 990.8 C342.7 991.5 342.7 992.3 342.7 993 C342.7 996.8 342.7 1000.6 342.7 1004.4 C342.7 1008.2 342.7 1012.1 342.7 1016 C342.8 1019 342.8 1022 342.8 1025 C342.8 1026.5 342.8 1027.9 342.8 1029.3 C342.9 1039 342.9 1048.3 336 1055.9 C333.4 1058.3 330.5 1060.4 327.7 1062.5 C315.1 1072.4 306.8 1087.5 304.4 1103.3 C304.2 1104.6 304.2 1104.6 304 1106 C301.7 1125.4 307.3 1144.9 319.2 1160.4 C331.3 1174.9 348.4 1186 367.4 1188.3 C388.6 1189.8 407.8 1185.4 424.3 1171.3 C425.4 1170.3 425.4 1170.3 426.4 1169.3 C427.1 1168.8 427.7 1168.3 428.3 1167.7 C437.3 1159.5 443.5 1147.7 447.4 1136.3 C447.8 1135.4 448.1 1134.6 448.4 1133.7 C453.4 1117.4 451.9 1100.4 444.9 1085.1 C440.5 1076.9 434 1070.7 427.1 1064.6 C417.4 1056.1 412.1 1048.6 411.2 1035.4 C411 1031.7 411 1027.9 411 1024.2 C411 1021.6 411 1019.1 411 1016.6 C411 1011.2 411 1005.8 410.9 1000.4 C412.2 949.4 412.2 949.4 389.4 905.3 C372 888.3 347.3 885.1 324 885.2 C322.7 885.2 321.5 885.2 320.3 885.2 C316.9 885.2 313.5 885.2 310.2 885.2 C306.5 885.2 302.9 885.2 299.3 885.2 C293 885.2 286.7 885.2 280.4 885.2 C271.3 885.2 262.2 885.2 253.1 885.2 C238.3 885.2 223.6 885.2 208.8 885.2 C194.5 885.3 180.1 885.3 165.8 885.3 C164.9 885.3 164 885.3 163.1 885.3 C158.7 885.3 154.2 885.3 149.8 885.3 C113 885.3 76.2 885.3 39.4 885.3 C39.4 875.1 39.4 864.9 39.4 854.3 C94 854.3 148.5 854.3 203 854.3 C209.4 854.3 215.9 854.4 222.3 854.4 C223.6 854.4 224.9 854.4 226.2 854.4 C246.9 854.4 267.7 854.4 288.4 854.4 C309.7 854.3 331 854.4 352.3 854.4 C365.4 854.4 378.6 854.4 391.7 854.4 C400.7 854.4 409.7 854.4 418.7 854.4 C423.9 854.4 429.1 854.4 434.3 854.4 C439.1 854.4 443.8 854.4 448.6 854.4 C450.3 854.4 452 854.4 453.7 854.4 C468.2 854.3 468.2 854.3 473.3 858.7 C474.4 859.9 475.4 861.1 476.4 862.3 C477.5 863.3 478.5 864.3 479.5 865.3 C480 865.7 480.5 866.2 481 866.7 C497.1 882.1 517.6 894.3 540.4 894.3 C558.3 892.8 573.6 884.2 585.6 871 C591.4 864.1 596.5 856.8 601.2 849.2 C602.4 847.3 602.4 847.3 603.8 845.5 C608.5 838.6 608.3 831.1 608.3 823 C608.3 820.7 608.3 818.3 608.4 815.9 C608.5 804.6 605.9 797.5 599.4 788.3 C599 787.6 598.5 786.9 598 786.1 C586.2 767.8 571 752.5 549.3 747.5 C531.4 744.1 514.5 749.3 499.4 759 C490 765.6 481.3 773 473.6 781.5 C469.1 785.2 463.5 785.6 457.9 785.6 C456.6 785.6 455.3 785.6 454 785.6 C452.6 785.6 451.2 785.6 449.7 785.6 C448.2 785.6 446.7 785.7 445.2 785.7 C441 785.7 436.8 785.7 432.6 785.7 C428.1 785.7 423.6 785.8 419 785.8 C410 785.8 401.1 785.9 392.1 785.9 C384.7 785.9 377.4 786 370.1 786 C273.2 786.4 176.3 786.4 38.4 786.3 C38.4 776.1 38.4 765.9 38.4 755.3 C42.2 755.3 45.9 755.3 49.7 755.3 C84 755.4 118.3 755.4 152.5 755.5 C157 755.5 161.5 755.5 166 755.5 C166.9 755.5 167.8 755.5 168.7 755.5 C183.2 755.5 197.6 755.5 212.1 755.5 C227 755.6 241.8 755.6 256.7 755.6 C265.8 755.6 275 755.6 284.1 755.6 C290.4 755.7 296.7 755.7 303 755.7 C306.6 755.7 310.3 755.7 313.9 755.7 C342.1 755.8 368.6 754.7 390.4 734.5 C408.5 715.6 410.6 690.1 410.6 665.4 C410.6 662.5 410.6 659.7 410.7 656.8 C410.7 648.7 410.8 640.6 410.8 632.5 C410.8 627.6 410.8 622.6 410.9 617.6 C410.9 615.7 410.9 613.9 410.9 612 C410.9 609.3 410.9 606.7 410.9 604.1 C410.9 603.3 410.9 602.5 410.9 601.7 C411 595.1 413.1 589.9 417.5 585 C418.2 584.4 419 583.9 419.7 583.3 C420.5 582.6 421.3 581.9 422.1 581.3 C422.9 580.6 423.6 580 424.4 579.3 C438.3 567.7 448.3 553.7 450.4 535.3 C452.1 514.4 446.5 495.2 433.3 478.7 C420.5 463.9 403.8 454.1 384.2 452.1 C364.6 450.7 346.1 456.5 330.5 468.6 C314.2 482.9 304.7 502.1 303.2 523.7 C302.8 541.6 307.8 558 320.3 571.3 C323.4 574.2 326.7 576.8 330.1 579.4 C337.6 585.5 341 592 342 601.6 C342.7 609.1 342.6 616.6 342.6 624.1 C342.6 625.7 342.6 627.3 342.6 628.9 C342.6 632.3 342.6 635.6 342.6 639 C342.6 643.3 342.6 647.6 342.7 651.9 C342.7 655.2 342.7 658.5 342.7 661.8 C342.7 663.4 342.7 665 342.7 666.6 C342.7 668.8 342.7 671 342.7 673.2 C342.7 674.5 342.7 675.7 342.7 677 C342.3 682.5 342.3 682.5 340.4 685.3 C334.2 687.8 328.1 687.6 321.4 687.6 C319.6 687.6 319.6 687.6 317.7 687.6 C314.4 687.6 311 687.6 307.7 687.6 C304.1 687.5 300.5 687.5 296.8 687.5 C290.6 687.5 284.3 687.5 278.1 687.5 C269 687.5 260 687.5 250.9 687.5 C236.2 687.5 221.6 687.5 206.9 687.5 C192.6 687.5 178.4 687.4 164.1 687.4 C163.2 687.4 162.3 687.4 161.4 687.4 C157 687.4 152.6 687.4 148.2 687.4 C111.6 687.4 75 687.4 38.4 687.3 C38.4 677.7 38.4 668.2 38.4 658.3 C42.3 658.3 46.2 658.3 50.2 658.3 C63.2 658.4 76.3 658.4 89.4 658.4 C97.3 658.4 105.2 658.4 113.1 658.4 C133.8 658.4 154.4 658.4 175.1 658.3 C177.5 658.3 179.8 658.3 182.2 658.3 C191.4 658.3 200.6 658.2 209.9 658.1 C212.8 658.1 215.6 658.1 218.5 658 C222.4 658 226.4 658 230.3 657.9 C231.5 657.9 232.6 657.9 233.8 657.9 C243.4 657.7 254.2 656.1 262 649.9 C269.9 641.6 271.8 633.2 271.8 622.2 C271.7 615.9 270.6 610.8 267.4 605.3 C267.1 604.7 266.8 604 266.4 603.4 C262.6 597.1 256.4 593.6 249.5 591.4 C239.1 589 229.1 588.9 218.5 589 C216.5 589 214.6 589 212.6 589 C207.3 589 202 589 196.6 589 C191.1 589 185.5 589 179.9 589 C169.4 589 158.9 589.1 148.4 589.1 C136.4 589.1 124.4 589.2 112.4 589.2 C87.7 589.2 63.1 589.3 38.4 589.3 C38.4 586 38.4 582.7 38.4 579.3 C39.6 579.3 40.8 579.3 42 579.3 C53.3 579.4 64.6 579.4 75.8 579.4 C81.6 579.4 87.4 579.4 93.2 579.5 C98.8 579.5 104.4 579.5 110 579.5 C112.1 579.5 114.3 579.5 116.4 579.5 C144.4 579.7 172.7 577.9 193.8 557 C201.3 549 206.1 540.9 209.7 530.6 C209.9 529.9 210.2 529.2 210.4 528.4 C214.9 514.9 214.7 501 214.7 486.9 C214.7 483.5 214.7 480.1 214.7 476.7 C214.8 467.1 214.8 457.5 214.8 447.8 C214.8 441.9 214.9 436 214.9 430 C214.9 427.8 214.9 425.6 214.9 423.3 C214.8 397 214.8 397 222.8 388.5 C224.1 387.3 225.3 386.1 226.6 385 C239.1 373.3 247.2 359 251.4 342.3 C251.7 341.2 251.7 341.2 252 340.1 C255 321.1 251.3 302.3 240.4 286.3 C228.7 270.6 211.6 260 192.3 256.8 C166 253.7 140.3 262.2 123.1 283 Z " fill="#07090A" transform="translate(820.5557022094727,3.6819419860839844)"/>
<path d="M0 0 C0.7 0.3 1.3 0.7 2 1 C-7.9 10.9 -17.8 20.8 -28 31 C-28.7 30.7 -29.3 30.3 -30 30 C-20.7 19.9 -11.2 10.2 -1 1 C-0.7 0.7 -0.3 0.3 0 0 Z " fill="#4B4D4E" transform="translate(597,572)"/>
<path d="M0 0 C2.1 0.4 2.1 0.4 4 1 C3.7 2.6 3.3 4.3 3 6 C1.4 5.7 -0.3 5.3 -2 5 C-1.1 1.1 -1.1 1.1 0 0 Z " fill="#FF3D3C" transform="translate(823,821)"/>
</svg>
</svg>
</g>
</svg>
</g>
</svg>
