<svg width="1922" height="1922" viewBox="0 0 1922 1922" fill="none" xmlns="http://www.w3.org/2000/svg">
<path d="M956.959 0C960.121 0 963.402 0 966.564 0C995.968 0 1025.14 0.234294 1054.42 3.63157C1057.23 3.86586 1060.05 4.2173 1062.86 4.56875C1150.13 14.0577 1236.35 34.6756 1444.75 129.214C1445.81 129.799 1446.86 130.385 1447.91 131.088C1462.91 139.874 1477.32 149.246 1491.73 158.852C1492.55 159.32 1493.37 159.906 1494.19 160.492C1510.12 171.035 1525.7 182.047 1540.81 193.645C1542.1 194.582 1543.27 195.519 1544.44 196.339C1563.65 210.982 1582.28 226.329 1600.09 242.612C1602.55 244.838 1605.01 246.947 1607.47 249.172C1621.17 261.121 1634.06 273.891 1646.94 286.777C1647.65 287.362 1648.23 288.065 1648.93 288.768C1655.49 295.211 1661.94 301.772 1667.91 308.8C1670.96 312.198 1674.12 315.478 1677.17 318.758C1682.67 324.615 1687.83 330.59 1692.86 336.799C1695.32 339.844 1697.9 342.89 1700.48 345.819C1708.44 354.956 1715.71 364.445 1722.97 374.051C1724.61 376.16 1726.25 378.269 1727.89 380.377C1785.76 454.532 1831.1 539.698 1888.15 704.407C1888.61 706.047 1889.08 707.687 1889.43 709.327C1904.08 764.035 1914.5 819.68 1918.95 876.145C1919.19 878.254 1919.31 880.245 1919.54 882.237C1921.65 907.189 1922 932.024 1922 956.977C1922 960.14 1922 963.303 1922 966.583C1921.88 995.87 1921.65 1025.16 1918.37 1054.44C1918.02 1057.25 1917.78 1060.07 1917.43 1062.88C1907.94 1150.15 1887.33 1236.37 1792.67 1444.78C1792.09 1445.83 1791.5 1446.89 1790.91 1447.94C1782.13 1462.82 1772.76 1477.35 1763.15 1491.75C1762.57 1492.57 1762.1 1493.39 1761.51 1494.21C1750.85 1510.15 1739.84 1525.61 1728.24 1540.84C1727.42 1542.01 1726.48 1543.18 1725.55 1544.47C1710.9 1563.68 1695.56 1582.19 1679.39 1600C1677.17 1602.46 1674.94 1605.04 1672.83 1607.5C1660.88 1621.2 1648.11 1634.09 1635.23 1646.97C1634.53 1647.56 1633.94 1648.26 1633.24 1648.97C1626.79 1655.53 1620.23 1661.97 1613.21 1667.94C1609.81 1670.87 1606.53 1674.04 1603.13 1677.2C1597.39 1682.59 1591.42 1687.86 1585.21 1692.78C1582.04 1695.36 1579.12 1697.82 1576.19 1700.51C1567.05 1708.36 1557.56 1715.74 1547.84 1723C1545.73 1724.64 1543.62 1726.28 1541.63 1727.81C1467.36 1785.79 1382.31 1831.13 1217.49 1888.18C1215.97 1888.65 1214.33 1889 1212.69 1889.47C1156.93 1904.35 1100.46 1914.3 1042.94 1919.23C1041.65 1919.34 1040.37 1919.46 1039.08 1919.58C941.495 1928.13 842.625 1920.16 477.132 1792.71C476.195 1792.12 475.141 1791.53 474.086 1790.95C459.092 1782.16 444.683 1772.79 430.274 1763.18C429.454 1762.6 428.634 1762.01 427.814 1761.54C411.882 1750.88 396.302 1739.87 381.073 1728.27C379.902 1727.34 378.73 1726.52 377.559 1725.58C358.347 1710.94 339.721 1695.59 321.915 1679.31C319.455 1677.2 316.995 1674.97 314.535 1672.86C300.829 1660.8 287.943 1648.03 275.057 1635.26C274.354 1634.56 273.768 1633.97 273.065 1633.27C266.505 1626.71 260.062 1620.26 254.088 1613.24C251.042 1609.72 247.879 1606.44 244.833 1603.16C239.327 1597.3 234.173 1591.45 229.136 1585.12C226.676 1582.07 224.099 1579.15 221.521 1576.1C213.556 1566.96 206.293 1557.47 198.912 1547.87C197.39 1545.76 195.75 1543.65 194.109 1541.54C136.24 1467.39 90.9046 1382.34 2.92863 1045.77C2.81148 1043.78 2.57724 1041.67 2.46009 1039.68C0.351478 1014.73 0 990.012 0 965.06C0 961.78 0 958.617 0 955.454C0.117145 926.05 0.234333 896.763 3.63154 867.593C3.98298 864.782 4.21725 861.97 4.56869 859.159C14.0574 771.767 34.675 685.663 129.211 477.141C130.148 475.618 130.148 475.618 131.085 474.095C139.871 459.1 149.243 444.574 158.849 430.282C159.669 428.994 159.669 428.994 160.489 427.822C171.032 411.89 182.161 396.309 193.641 381.08C194.578 379.909 195.515 378.737 196.452 377.449C210.978 358.354 226.442 339.727 242.608 321.921C244.833 319.461 247.059 317.001 249.168 314.541C261.116 300.834 273.885 287.831 286.771 275.062C287.357 274.359 288.06 273.656 288.763 272.953C295.206 266.51 301.766 259.95 308.795 253.975C312.192 251.047 315.472 247.884 318.869 244.721C324.609 239.332 330.584 234.178 336.792 229.14C339.838 226.68 342.884 224.103 345.812 221.526C354.95 213.56 364.439 206.179 374.162 198.916C376.27 197.393 378.262 195.753 380.37 194.113C454.64 136.242 539.688 90.7892 876.246 2.92868C878.237 2.81154 880.228 2.57724 882.337 2.46009C907.172 0.234295 932.007 0 956.959 0ZM840.165 286.894C823.999 308.332 819.313 333.87 817.79 360.111C817.204 369.951 815.564 378.269 808.653 385.766C799.633 391.741 789.207 394.904 778.898 398.067C750.666 406.97 723.957 419.27 697.365 432.274C689.751 435.905 682.253 439.537 674.756 443.051C673.233 443.754 673.233 443.754 671.593 444.574C665.97 447.151 661.519 448.909 655.193 447.854C652.498 446.097 650.273 444.574 647.813 442.348C646.407 441.177 645.001 440.005 643.478 438.834C642.424 437.897 642.424 437.897 641.252 436.96C613.84 414.702 582.68 395.724 546.248 398.652C528.442 401.581 513.916 411.539 500.561 423.253C499.624 424.073 498.687 425.011 497.75 425.831C495.875 427.471 493.884 429.228 492.127 430.868C490.018 432.742 487.909 434.617 485.918 436.491C476.546 444.926 467.643 453.712 458.74 462.732C456.28 465.075 453.937 467.535 451.477 469.878C449.954 471.518 448.314 473.041 446.792 474.564C446.089 475.267 445.386 475.97 444.683 476.79C439.646 481.827 434.96 486.982 430.274 492.37C429.688 493.19 428.985 493.893 428.283 494.713C411.414 514.511 395.599 536.535 397.473 563.83C400.168 587.143 413.639 606.94 427.228 625.45C446.909 652.042 446.909 652.042 444.331 669.263C442.574 675.94 439.294 681.915 436.014 688.006C423.362 711.319 413.991 735.92 404.854 760.755C395.833 785.239 395.833 785.239 392.436 793.79C392.085 794.61 391.733 795.431 391.382 796.251C387.633 805.388 379.785 813.12 370.53 816.868C366.196 817.806 361.861 817.923 357.293 818.157C327.772 820.031 299.306 827.646 277.985 849.67C265.685 863.845 259.125 879.659 254.556 897.7C254.439 898.52 254.205 899.223 253.971 899.926C253.385 902.503 253.268 904.729 253.268 907.306C253.268 908.243 253.268 909.181 253.268 910.235C253.268 911.758 253.268 911.758 253.268 913.398C253.268 914.452 253.268 915.624 253.151 916.795C253.151 920.427 253.151 924.175 253.151 927.807C253.151 929.096 253.151 930.384 253.151 931.673C253.151 938.35 253.151 945.028 253.033 951.822C253.033 958.617 253.033 965.528 253.033 972.44C252.916 977.712 252.916 983.101 252.916 988.372C252.916 990.949 252.916 993.527 252.916 995.987C252.682 1017.19 255.142 1034.53 265.099 1053.51C265.685 1054.56 266.154 1055.5 266.739 1056.55C278.22 1077.4 298.72 1091.7 321.212 1098.26C333.278 1101.54 345.461 1103.29 357.878 1104.47C358.816 1104.58 359.87 1104.58 361.041 1104.7C363.033 1104.93 365.141 1105.05 367.133 1105.17C372.99 1105.75 377.09 1106.81 382.245 1109.74C383.416 1110.09 384.587 1110.56 385.759 1110.91C387.048 1113.02 387.048 1113.02 388.102 1115.59C388.805 1116.88 388.805 1116.88 389.508 1118.29C393.373 1126.49 396.185 1134.92 398.996 1143.48C403.682 1158.59 409.071 1173.23 415.045 1187.87C415.397 1188.69 415.748 1189.63 416.099 1190.57C420.785 1202.05 425.823 1213.53 430.977 1224.89C432.031 1227.35 433.203 1229.93 434.257 1232.39C436.483 1237.19 438.591 1241.88 440.817 1246.68C441.871 1248.91 442.809 1251.13 443.863 1253.36C444.331 1254.3 444.8 1255.35 445.269 1256.41C448.314 1263.08 448.314 1263.08 447.26 1266.71C445.971 1268.94 445.971 1268.94 443.16 1272.57C442.691 1273.39 442.223 1274.21 441.637 1275.03C441.169 1275.62 440.7 1276.32 440.231 1277.02C439.646 1277.73 439.177 1278.43 438.591 1279.25C438.006 1280.07 437.42 1280.89 436.834 1281.71C435.546 1283.47 434.374 1285.22 433.086 1286.98C432.5 1287.92 431.797 1288.74 431.094 1289.68C411.882 1316.85 394.896 1342.39 399.113 1377.07C402.511 1393 411.297 1407.17 422.074 1419.01C423.245 1420.18 424.3 1421.47 425.354 1422.64C430.743 1428.61 436.366 1434.47 442.106 1440.09C444.214 1442.32 446.089 1444.43 448.08 1446.77C453 1452.39 458.272 1457.66 463.66 1463.05C464.598 1463.99 465.535 1464.93 466.472 1465.86C471.509 1470.9 476.664 1475.82 482.169 1480.51C485.098 1482.97 487.792 1485.78 490.487 1488.59C496.578 1494.8 503.021 1500.42 509.933 1505.69C510.987 1506.4 511.924 1507.22 512.861 1507.92C531.839 1521.98 552.574 1527.13 575.768 1523.97C591.7 1520.1 604.703 1510.97 616.535 1500.07C630.475 1487.3 646.524 1479.1 665.619 1479.34C683.542 1480.16 698.419 1488.94 713.414 1498.31C730.868 1509.09 749.495 1515.65 768.941 1521.86C772.455 1522.92 775.969 1524.09 779.484 1525.26C781.709 1525.96 783.935 1526.66 786.044 1527.37C799.398 1531.7 808.301 1536.97 815.682 1549.39C817.556 1554.19 818.259 1559 818.493 1564.15C820.719 1594.26 826.81 1620.62 848.482 1642.76C849.302 1643.58 850.122 1644.4 850.825 1645.22C856.214 1650.37 862.071 1654.12 868.514 1657.64C869.217 1658.1 870.037 1658.46 870.857 1658.92C873.434 1660.33 876.246 1661.5 878.94 1662.67C880.814 1663.49 880.814 1663.49 882.688 1664.31C896.746 1669.47 910.803 1669.7 925.681 1669.7C930.015 1669.7 934.232 1669.82 938.567 1669.94C952.39 1670.64 952.39 1670.64 964.807 1665.84C967.15 1662.56 968.79 1659.39 970.313 1655.64C972.07 1653.3 972.07 1653.3 973.827 1651.19C974.296 1650.61 974.882 1649.9 975.35 1649.32C976.053 1648.38 976.053 1648.38 976.873 1647.44C1003 1614.29 1001.01 1581.14 1001.01 1540.49C1001.01 1537.79 1001.01 1535.22 1001.01 1532.52C1001.01 1527.13 1001.01 1521.63 1001.01 1516.12C1001.01 1510.62 1001.01 1505.11 1001.01 1499.6C1001.01 1481.68 1001.01 1463.87 1000.77 1445.95C1000.77 1445.01 1000.77 1443.96 1000.77 1442.9C1000.77 1437.16 1000.65 1431.31 1000.54 1425.57C1000.54 1424.28 1000.54 1422.99 1000.42 1421.58C999.951 1404.13 994.211 1389.25 982.262 1376.48C965.51 1360.78 943.721 1358.21 921.698 1356.57C845.905 1350.36 771.049 1318.14 711.422 1271.4C710.368 1270.46 709.197 1269.64 708.025 1268.71C688.462 1253.01 669.367 1235.08 654.021 1215.17C652.85 1213.65 651.678 1212.12 650.507 1210.6C642.19 1199.94 634.341 1189.16 627.078 1177.68C626.492 1176.75 626.024 1175.81 625.321 1174.87C574.714 1093.34 552.105 987.084 568.505 891.843C568.74 890.554 568.974 889.148 569.208 887.743C574.714 856.933 583.968 827.88 596.62 799.296C597.089 798.359 597.557 797.422 597.909 796.485C603.063 784.887 608.92 773.875 615.363 762.981C615.949 762.161 616.418 761.341 616.886 760.521C637.504 726.314 663.744 694.449 693.851 668.091C695.022 667.154 696.194 666.1 697.365 665.046C715.171 649.465 734.5 635.759 754.766 623.575C756.289 622.755 756.289 622.755 757.695 621.818C811.581 589.72 871.443 570.976 933.764 564.416C953.327 562.424 971.602 557.036 985.425 542.392C997.022 527.749 1000.19 510.411 1000.19 492.136C1000.19 489.91 1000.19 489.91 1000.19 487.684C1000.19 483.701 1000.19 479.718 1000.3 475.735C1000.3 471.518 1000.3 467.301 1000.3 463.083C1000.42 455.117 1000.42 447.151 1000.42 439.068C1000.42 430.165 1000.54 421.145 1000.54 412.242C1000.65 393.615 1000.77 374.989 1000.77 356.362C1000.77 352.379 1000.89 348.513 1000.89 344.53C1000.89 342.07 1000.89 339.61 1000.89 337.267C1000.89 334.221 1000.89 331.176 1001.01 328.13C1001.01 318.055 1000.3 308.8 997.256 299.077C996.788 297.554 996.788 297.554 996.319 295.914C993.625 288.3 989.291 281.974 984.371 275.648C983.785 274.828 983.199 274.125 982.613 273.305C976.17 265.222 966.682 258.076 957.427 253.39C955.67 253.273 953.913 253.155 952.038 253.155C950.867 253.155 949.813 253.155 948.641 253.155C943.37 253.038 938.098 253.038 932.827 253.038C930.132 253.038 927.438 252.921 924.626 252.921C891.24 252.335 862.54 260.419 840.165 286.894ZM1101.16 331.527C1085.47 352.848 1080.31 374.403 1083.24 400.41C1088.04 422.316 1102.45 440.005 1118.15 455.117C1118.97 455.937 1119.91 456.758 1120.73 457.578C1121.9 458.632 1121.9 458.632 1123.07 459.803C1126.47 463.552 1127.64 466.832 1127.87 471.87C1127.87 472.924 1127.87 473.978 1127.99 475.033C1127.99 476.204 1127.99 477.375 1128.11 478.547C1128.11 479.836 1128.11 481.007 1128.22 482.296C1128.69 497.525 1128.69 512.871 1128.69 528.217C1128.69 532.318 1128.69 536.535 1128.69 540.752C1128.69 570.039 1128.69 570.039 1128.11 584.097C1127.99 585.034 1127.99 585.971 1127.99 586.791C1127.76 591.008 1127.4 593 1124.94 596.631C1121.66 597.803 1119.56 597.92 1116.16 598.037C1114.99 598.037 1113.93 598.037 1112.76 598.037C1111 598.037 1111 598.037 1109.13 598.037C1107.84 598.037 1106.55 598.037 1105.26 598.037C1101.05 598.037 1096.83 598.037 1092.61 598.037C1089.68 598.037 1086.76 598.037 1083.83 598.037C1077.74 598.037 1071.64 598.037 1065.43 598.037C1059.23 598.037 1052.9 598.037 1046.57 598.037C1038.96 598.037 1031.35 598.037 1023.73 598.037C1020.92 598.037 1017.99 598.154 1015.06 598.154C1011.08 598.154 1006.98 598.154 1002.88 598.154C1001.71 598.154 1000.54 598.154 999.248 598.154C997.608 598.154 997.608 598.154 995.968 598.154C995.031 598.154 993.976 598.154 993.039 598.154C987.768 597.569 984.839 595.811 980.973 592.297C965.627 578.708 945.595 575.779 925.798 576.716C919.824 577.302 913.732 578.122 907.758 579.059C906.586 579.294 906.586 579.294 905.298 579.411C812.636 593.937 719.974 641.733 662.221 717.293C661.401 718.348 660.581 719.402 659.761 720.456C644.532 739.434 631.178 760.169 620.049 781.724C619.229 783.364 619.229 783.364 618.409 785.004C599.08 822.726 586.78 862.907 580.22 904.729C580.103 905.9 579.868 907.189 579.634 908.361C574.011 944.793 574.245 984.272 580.22 1020.7C580.454 1021.99 580.688 1023.16 580.923 1024.45C591.7 1089.59 618.761 1151.68 660.698 1202.75C661.753 1204.04 662.807 1205.21 663.744 1206.5C671.827 1216.58 680.73 1225.71 689.868 1234.85C690.688 1235.79 690.688 1235.79 691.625 1236.61C699.356 1244.46 707.439 1251.72 716.108 1258.51C717.514 1259.57 718.802 1260.74 720.091 1261.79C773.041 1304.32 865.468 1353.75 936.341 1346.37C953.444 1344.15 972.07 1339.35 984.371 1326.34C989.759 1323.06 994.562 1323.53 1000.77 1323.53C1002.06 1323.53 1003.35 1323.53 1004.75 1323.53C1008.97 1323.53 1013.31 1323.53 1017.52 1323.65C1020.57 1323.65 1023.5 1323.65 1026.43 1323.65C1032.75 1323.65 1038.96 1323.65 1045.17 1323.65C1052.43 1323.65 1059.58 1323.65 1066.84 1323.65C1073.75 1323.65 1080.66 1323.77 1087.58 1323.77C1090.5 1323.77 1093.43 1323.77 1096.48 1323.77C1100.58 1323.77 1104.68 1323.77 1108.78 1323.77C1110.65 1323.77 1110.65 1323.77 1112.53 1323.77C1113.58 1323.77 1114.75 1323.77 1115.92 1323.88C1117.33 1323.88 1117.33 1323.88 1118.85 1323.88C1121.78 1324.12 1123.66 1324.94 1126.12 1326.46C1127.87 1329.97 1127.52 1333.37 1127.52 1337.12C1127.64 1338.06 1127.64 1338.88 1127.64 1339.81C1127.64 1342.63 1127.64 1345.55 1127.76 1348.37C1127.76 1350.36 1127.76 1352.47 1127.76 1354.46C1127.87 1358.67 1127.87 1362.89 1127.87 1367.11C1127.99 1372.5 1127.99 1377.77 1128.11 1383.16C1128.22 1393.23 1128.34 1403.43 1128.46 1413.5C1128.46 1418.89 1128.58 1424.28 1128.58 1429.78C1128.69 1432.01 1128.69 1434.35 1128.69 1436.58C1128.69 1437.52 1128.69 1438.45 1128.69 1439.51C1128.81 1450.64 1126.58 1459.77 1119.09 1468.21C1115.92 1471.02 1112.76 1473.71 1109.36 1476.29C1094.14 1488.36 1084.88 1505.58 1081.95 1524.79C1079.61 1547.87 1086.05 1571.41 1100.7 1589.46C1115.34 1607.03 1134.9 1618.98 1157.75 1621.67C1184.1 1623.66 1207.18 1616.63 1227.33 1599.41C1244.32 1583.25 1253.69 1560.64 1254.39 1537.32C1254.51 1515.54 1248.65 1499.02 1233.66 1483.09C1228.15 1476.99 1228.15 1476.99 1221 1474.07C1220.77 1473.36 1220.42 1472.66 1220.07 1471.96C1218.78 1469.61 1217.37 1467.5 1215.85 1465.28C1208.35 1452.86 1208.82 1439.51 1208.82 1425.45C1208.82 1421.82 1208.82 1418.19 1208.82 1414.44C1208.82 1406.71 1208.82 1398.86 1208.7 1391.01C1208.7 1381.99 1208.7 1372.97 1208.7 1363.95C1208.7 1360.43 1208.7 1356.92 1208.7 1353.29C1208.59 1323.41 1205.54 1292.14 1184.1 1269.53C1157.16 1243.4 1120.73 1243.05 1085.47 1243.17C1083.12 1243.17 1080.66 1243.17 1078.2 1243.17C1071.88 1243.17 1065.67 1243.17 1059.34 1243.17C1052.9 1243.28 1046.34 1243.28 1039.9 1243.28C1027.25 1243.28 1014.59 1243.28 1001.94 1243.28C1001.94 1239.42 1001.94 1235.55 1001.94 1231.57C1003.23 1231.57 1004.4 1231.57 1005.69 1231.57C1035.21 1231.69 1064.73 1231.69 1094.25 1231.8C1108.54 1231.8 1122.84 1231.8 1137.13 1231.8C1149.55 1231.92 1162.08 1231.92 1174.5 1231.92C1181.06 1231.92 1187.73 1231.92 1194.29 1231.92C1200.5 1232.04 1206.71 1232.04 1212.92 1232.04C1215.15 1232.04 1217.49 1232.04 1219.72 1232.04C1243.73 1232.16 1243.73 1232.16 1264.35 1221.03C1272.78 1212.48 1275.12 1202.99 1275.48 1191.27C1275.24 1180.38 1272.43 1170.77 1265.52 1162.22C1251.23 1149.1 1231.31 1150.39 1213.27 1150.62C1211.05 1150.62 1208.7 1150.62 1206.36 1150.62C1200.15 1150.62 1193.94 1150.74 1187.62 1150.74C1181.17 1150.86 1174.61 1150.86 1168.05 1150.86C1155.75 1150.97 1143.34 1150.97 1131.04 1151.09C1116.98 1151.21 1102.92 1151.32 1088.75 1151.32C1059.81 1151.56 1030.88 1151.68 1001.94 1151.91C1001.94 1140.31 1001.94 1128.71 1001.94 1116.77C1087.11 1116.65 1172.15 1116.65 1257.2 1117.23C1264.23 1117.23 1271.14 1117.23 1278.05 1117.23C1286.6 1117.35 1295.16 1117.35 1303.59 1117.47C1307.93 1117.47 1312.26 1117.47 1316.71 1117.47C1321.4 1117.47 1326.08 1117.59 1330.89 1117.59C1332.17 1117.59 1333.58 1117.59 1334.99 1117.59C1336.27 1117.59 1337.56 1117.59 1338.85 1117.59C1340.02 1117.59 1341.08 1117.7 1342.13 1117.7C1347.64 1118.17 1350.45 1119.69 1354.31 1123.68C1360.76 1133.52 1358.3 1149.45 1358.3 1160.7C1358.41 1161.52 1358.41 1162.45 1358.41 1163.27C1358.41 1167.72 1358.41 1172.18 1358.41 1176.63C1358.41 1181.08 1358.41 1185.65 1358.41 1190.22C1358.53 1193.73 1358.53 1197.25 1358.53 1200.76C1358.53 1202.52 1358.53 1204.16 1358.53 1205.8C1358.65 1217.16 1358.65 1228.06 1350.57 1236.96C1347.52 1239.77 1344.12 1242.23 1340.84 1244.69C1326.08 1256.29 1316.36 1273.98 1313.55 1292.49C1313.31 1294.01 1313.31 1294.01 1313.08 1295.65C1310.39 1318.38 1316.95 1341.22 1330.89 1359.38C1345.06 1376.36 1365.09 1389.37 1387.35 1392.06C1412.18 1393.82 1434.68 1388.66 1454.01 1372.15C1455.29 1370.98 1455.29 1370.98 1456.47 1369.8C1457.29 1369.22 1457.99 1368.63 1458.69 1367.93C1469.23 1358.32 1476.5 1344.5 1481.07 1331.15C1481.53 1330.09 1481.89 1329.15 1482.24 1328.1C1488.09 1309 1486.34 1289.09 1478.14 1271.17C1472.98 1261.56 1465.37 1254.3 1457.29 1247.15C1445.92 1237.19 1439.71 1228.41 1438.66 1212.94C1438.43 1208.61 1438.42 1204.16 1438.42 1199.82C1438.42 1196.78 1438.42 1193.85 1438.42 1190.92C1438.42 1184.59 1438.42 1178.27 1438.31 1171.94C1439.83 1112.2 1439.83 1112.2 1413.12 1060.53C1392.74 1040.62 1363.8 1036.87 1336.51 1036.99C1334.99 1036.99 1333.58 1036.99 1332.17 1036.99C1328.19 1036.99 1324.21 1036.99 1320.34 1036.99C1316.01 1036.99 1311.79 1036.99 1307.57 1036.99C1300.19 1036.99 1292.81 1036.99 1285.43 1036.99C1274.77 1036.99 1264.11 1036.99 1253.45 1036.99C1236.12 1036.99 1218.9 1036.99 1201.56 1036.99C1184.81 1037.11 1167.94 1037.11 1151.19 1037.11C1150.13 1037.11 1149.08 1037.11 1148.02 1037.11C1142.87 1037.11 1137.6 1037.11 1132.44 1037.11C1089.33 1037.11 1046.22 1037.11 1003.11 1037.11C1003.11 1025.16 1003.11 1013.21 1003.11 1000.79C1067.07 1000.79 1130.92 1000.79 1194.76 1000.79C1202.26 1000.79 1209.87 1000.91 1217.37 1000.91C1218.9 1000.91 1220.42 1000.91 1221.94 1000.91C1246.19 1000.91 1270.56 1000.91 1294.81 1000.91C1319.76 1000.79 1344.71 1000.91 1369.66 1000.91C1385.01 1000.91 1400.47 1000.91 1415.82 1000.91C1426.36 1000.91 1436.9 1000.91 1447.45 1000.91C1453.54 1000.91 1459.63 1000.91 1465.72 1000.91C1471.34 1000.91 1476.85 1000.91 1482.47 1000.91C1484.46 1000.91 1486.45 1000.91 1488.45 1000.91C1505.43 1000.79 1505.43 1000.79 1511.41 1005.94C1512.69 1007.35 1513.87 1008.76 1515.04 1010.16C1516.33 1011.33 1517.5 1012.5 1518.67 1013.68C1519.26 1014.14 1519.84 1014.73 1520.43 1015.32C1539.29 1033.36 1563.3 1047.65 1590.01 1047.65C1610.98 1045.89 1628.9 1035.82 1642.96 1020.35C1649.75 1012.27 1655.73 1003.72 1661.24 994.815C1662.64 992.59 1662.64 992.589 1664.28 990.481C1669.79 982.398 1669.55 973.612 1669.55 964.123C1669.55 961.428 1669.55 958.617 1669.67 955.805C1669.79 942.568 1666.74 934.25 1659.13 923.473C1658.66 922.653 1658.07 921.832 1657.49 920.895C1643.66 899.457 1625.86 881.534 1600.44 875.676C1579.47 871.693 1559.67 877.785 1541.98 889.148C1530.97 896.88 1520.78 905.549 1511.76 915.507C1506.49 919.841 1499.93 920.31 1493.37 920.31C1491.84 920.31 1490.32 920.31 1488.8 920.31C1487.16 920.31 1485.52 920.31 1483.76 920.31C1482 920.31 1480.25 920.427 1478.49 920.427C1473.57 920.427 1468.65 920.427 1463.73 920.427C1458.46 920.427 1453.19 920.544 1447.8 920.544C1437.25 920.544 1426.83 920.661 1416.28 920.661C1407.62 920.661 1399.06 920.778 1390.51 920.778C1277 921.247 1163.49 921.247 1001.94 921.13C1001.94 909.181 1001.94 897.232 1001.94 884.814C1006.39 884.814 1010.73 884.814 1015.18 884.814C1055.36 884.931 1095.54 884.931 1135.6 885.048C1140.88 885.048 1146.15 885.048 1151.42 885.048C1152.47 885.048 1153.53 885.048 1154.58 885.048C1171.57 885.048 1188.44 885.048 1205.42 885.048C1222.88 885.165 1240.22 885.165 1257.67 885.165C1268.33 885.165 1279.11 885.165 1289.77 885.165C1297.15 885.282 1304.53 885.283 1311.91 885.283C1316.13 885.283 1320.46 885.283 1324.68 885.283C1357.71 885.4 1388.76 884.111 1414.29 860.447C1435.5 838.306 1437.96 808.434 1437.96 779.498C1437.96 776.101 1437.96 772.821 1438.07 769.424C1438.07 759.935 1438.19 750.446 1438.19 740.957C1438.19 735.217 1438.19 729.359 1438.31 723.502C1438.31 721.276 1438.31 719.168 1438.31 716.942C1438.31 713.779 1438.31 710.733 1438.31 707.687C1438.31 706.75 1438.31 705.813 1438.31 704.876C1438.42 697.144 1440.89 691.052 1446.04 685.312C1446.86 684.609 1447.8 684.023 1448.62 683.32C1449.55 682.5 1450.49 681.68 1451.43 680.978C1452.37 680.158 1453.19 679.455 1454.12 678.635C1470.41 665.045 1482.12 648.645 1484.58 627.09C1486.57 602.606 1480.01 580.114 1464.55 560.784C1449.55 543.447 1429.99 531.966 1407.03 529.623C1384.07 527.983 1362.4 534.778 1344.12 548.952C1325.03 565.705 1313.9 588.197 1312.14 613.501C1311.67 634.47 1317.53 653.682 1332.17 669.263C1335.81 672.66 1339.67 675.706 1343.65 678.752C1352.44 685.898 1356.42 693.512 1357.59 704.758C1358.41 713.544 1358.3 722.331 1358.3 731.117C1358.3 732.991 1358.3 734.865 1358.3 736.74C1358.3 740.723 1358.3 744.589 1358.3 748.572C1358.3 753.609 1358.3 758.646 1358.41 763.684C1358.41 767.549 1358.41 771.415 1358.41 775.281C1358.41 777.156 1358.41 779.03 1358.41 780.904C1358.41 783.481 1358.41 786.059 1358.41 788.636C1358.41 790.159 1358.41 791.565 1358.41 793.088C1357.95 799.531 1357.95 799.531 1355.72 802.811C1348.46 805.739 1341.31 805.505 1333.46 805.505C1331.35 805.505 1331.35 805.505 1329.13 805.505C1325.26 805.505 1321.28 805.505 1317.41 805.505C1313.2 805.388 1308.98 805.388 1304.65 805.388C1297.38 805.388 1290 805.388 1282.74 805.388C1272.08 805.388 1261.54 805.388 1250.88 805.388C1233.66 805.388 1216.55 805.388 1199.33 805.388C1182.58 805.388 1165.95 805.271 1149.19 805.271C1148.14 805.271 1147.09 805.271 1146.03 805.271C1140.88 805.271 1135.72 805.271 1130.57 805.271C1087.69 805.271 1044.82 805.271 1001.94 805.154C1001.94 793.908 1001.94 782.779 1001.94 771.181C1006.51 771.181 1011.08 771.181 1015.77 771.181C1030.99 771.298 1046.34 771.298 1061.69 771.298C1070.94 771.298 1080.2 771.298 1089.45 771.298C1113.7 771.298 1137.83 771.298 1162.08 771.181C1164.89 771.181 1167.59 771.181 1170.4 771.181C1181.17 771.181 1191.95 771.064 1202.85 770.947C1206.24 770.947 1209.52 770.947 1212.92 770.83C1217.49 770.83 1222.18 770.83 1226.74 770.712C1228.15 770.712 1229.44 770.712 1230.84 770.712C1242.09 770.478 1254.74 768.604 1263.88 761.341C1273.13 751.617 1275.36 741.777 1275.36 728.891C1275.24 721.511 1273.95 715.536 1270.2 709.093C1269.85 708.39 1269.5 707.57 1269.03 706.867C1264.58 699.487 1257.32 695.387 1249.24 692.809C1237.05 689.998 1225.34 689.881 1212.92 689.998C1210.58 689.998 1208.35 689.998 1206.01 689.998C1199.8 689.998 1193.59 689.998 1187.27 689.998C1180.82 689.998 1174.26 689.998 1167.7 689.998C1155.4 689.998 1143.1 690.115 1130.8 690.115C1116.74 690.115 1102.69 690.232 1088.63 690.232C1059.69 690.232 1030.88 690.349 1001.94 690.349C1001.94 686.483 1001.94 682.618 1001.94 678.635C1003.35 678.635 1004.75 678.635 1006.16 678.635C1019.4 678.752 1032.63 678.752 1045.75 678.752C1052.55 678.752 1059.34 678.752 1066.14 678.869C1072.7 678.869 1079.26 678.869 1085.82 678.869C1088.28 678.869 1090.86 678.869 1093.32 678.869C1126.12 679.103 1159.27 676.995 1183.99 652.511C1192.77 643.139 1198.39 633.65 1202.61 621.584C1202.85 620.764 1203.2 619.944 1203.43 619.007C1208.7 603.192 1208.47 586.908 1208.47 570.39C1208.47 566.407 1208.47 562.424 1208.47 558.441C1208.59 547.195 1208.59 535.949 1208.59 524.586C1208.59 517.674 1208.7 510.762 1208.7 503.734C1208.7 501.156 1208.7 498.579 1208.7 495.885C1208.59 465.075 1208.59 465.075 1217.96 455.117C1219.48 453.712 1220.89 452.306 1222.41 451.017C1237.05 437.311 1246.54 420.559 1251.46 400.995C1251.81 399.707 1251.81 399.707 1252.16 398.418C1255.68 376.16 1251.34 354.136 1238.58 335.393C1224.87 317.001 1204.84 304.583 1182.23 300.834C1151.42 297.203 1121.31 307.16 1101.16 331.527Z" fill="#D0021B"/>
<path d="M959.821 957.467C962.281 957.935 962.281 957.935 964.507 958.638C964.156 960.513 963.687 962.504 963.336 964.496C961.461 964.144 959.47 963.675 957.479 963.324C958.533 958.755 958.533 958.755 959.821 957.467Z" fill="#D0021B"/>
</svg>
